<?xml version="1.0" standalone="no"?>
<!DOCTYPE svg PUBLIC "-//W3C//DTD SVG 20010904//EN"
 "http://www.w3.org/TR/2001/REC-SVG-20010904/DTD/svg10.dtd">
<svg version="1.0" xmlns="http://www.w3.org/2000/svg"
 width="700.000000pt" height="700.000000pt" viewBox="0 0 700.000000 700.000000"
 preserveAspectRatio="xMidYMid meet">
<metadata>
Created by potrace 1.15, written by Peter Selinger 2001-2017
</metadata>
<g transform="translate(0.000000,700.000000) scale(0.100000,-0.100000)"
fill="#000000" stroke="none">
<path d="M2908 6951 l-3 -49 -522 -595 -523 -594 -143 -5 c-129 -4 -149 -8
-205 -33 -43 -19 -79 -45 -115 -85 -76 -82 -89 -125 -95 -302 l-4 -148 616 0
616 0 0 -1348 0 -1349 -95 -164 -95 -164 0 -212 0 -213 -197 0 -198 0 -196
-343 -197 -342 1536 -3 c844 -1 1537 0 1540 2 2 3 -83 157 -190 343 l-194 338
-197 3 -197 2 0 209 0 208 -95 164 -95 164 0 1353 0 1352 1021 0 1022 0 -6 49
c-3 27 -15 67 -26 89 -42 83 -177 181 -338 246 -30 13 -492 279 -1028 592
l-974 569 -1 158 0 157 -209 0 -210 0 -3 -49z m2 -761 l0 -360 -135 0 -135 0
0 -60 0 -60 -235 0 c-193 0 -235 2 -228 13 11 19 723 827 729 827 2 0 4 -162
4 -360z m1053 -139 c323 -189 586 -344 585 -345 -2 0 -218 0 -480 2 l-478 3 0
60 0 59 -130 0 -130 0 0 296 0 296 23 -14 c12 -8 287 -169 610 -357z m-608
-1124 c-32 -21 -563 -327 -580 -333 -13 -5 -15 18 -15 170 l0 176 307 0 c259
0 304 -2 288 -13z m65 -468 c0 -211 -4 -369 -9 -367 -24 9 -631 363 -631 368
0 6 620 368 633 369 4 1 7 -166 7 -370z m-332 -324 c172 -99 312 -182 312
-185 0 -5 -608 -359 -632 -368 -4 -2 -8 164 -8 368 0 204 4 370 8 368 5 -1
149 -84 320 -183z m332 -695 c0 -203 -2 -370 -5 -370 -9 0 -635 364 -635 370
0 6 620 368 633 369 4 1 7 -165 7 -369z m-335 -311 c173 -100 315 -185 315
-188 -1 -5 -305 -183 -582 -339 l-58 -33 0 370 c0 204 2 371 5 371 3 0 147
-82 320 -181z m315 -494 l0 -175 -307 0 c-168 0 -304 2 -302 4 9 9 595 346
602 346 4 0 7 -79 7 -175z"/>
<path d="M1405 5056 c-17 -7 -44 -28 -59 -47 -26 -30 -28 -39 -24 -96 3 -53 9
-68 33 -93 16 -17 46 -35 68 -41 24 -6 145 -9 315 -7 307 3 322 6 363 71 29
46 23 136 -12 173 -47 51 -66 54 -371 54 -213 -1 -291 -4 -313 -14z"/>
<path d="M4800 3987 l0 -1084 30 -61 c17 -33 47 -75 67 -93 39 -34 127 -79
156 -79 14 0 17 -9 17 -55 0 -71 18 -114 64 -148 29 -23 36 -35 36 -63 0 -40
-29 -74 -62 -74 -31 0 -83 33 -105 66 -12 18 -17 45 -17 82 1 51 0 54 -13 36
-44 -56 -56 -150 -28 -205 35 -66 136 -110 220 -95 73 14 129 90 141 191 l7
56 -46 47 c-49 50 -67 86 -67 133 0 29 1 29 55 29 l55 0 0 1200 0 1200 -75 0
-75 0 0 -975 0 -975 -105 0 -105 0 0 975 0 975 -75 0 -75 0 0 -1083z"/>
</g>
</svg>
